<?xml version="1.0" encoding="iso-8859-1"?>
<!-- Uploaded to: SVG Repo, www.svgrepo.com, Generator: SVG Repo Mixer Tools -->
<svg height="800px" width="800px" version="1.1" id="Layer_1" xmlns="http://www.w3.org/2000/svg" xmlns:xlink="http://www.w3.org/1999/xlink" 
	 viewBox="0 0 512 512" xml:space="preserve">
<g>
	<path style="fill:#2D527C;" d="M60.76,139.885c-7.812,0-14.144-6.332-14.144-14.144V60.76c0-7.812,6.332-14.144,14.144-14.144
		h64.98c7.812,0,14.144,6.332,14.144,14.144s-6.332,14.144-14.144,14.144H74.903v50.837
		C74.903,133.553,68.571,139.885,60.76,139.885z"/>
	<path style="fill:#2D527C;" d="M451.24,465.384h-64.98c-7.812,0-14.144-6.332-14.144-14.144s6.332-14.144,14.144-14.144h50.836
		V386.26c0-7.812,6.332-14.144,14.144-14.144s14.144,6.332,14.144,14.144v64.98C465.384,459.05,459.05,465.384,451.24,465.384z"/>
	<path style="fill:#2D527C;" d="M497.856,512H14.144C6.332,512,0,505.668,0,497.856V14.144C0,6.332,6.332,0,14.144,0h483.713
		C505.668,0,512,6.332,512,14.144v483.713C512,505.668,505.668,512,497.856,512z M28.287,483.713h455.425V28.287H28.287V483.713z"/>
</g>
<path style="fill:#CEE8FA;" d="M215.573,379.207c-8.497,0-20.159-4.069-27.45-23.457c-0.014-0.037-65.349-169.277-65.349-169.277
	h-1.644c-11.772,0-21.35-9.843-21.35-21.942v-9.796c0-12.1,9.577-21.942,21.35-21.942h131.332c2.495,0,4.901,0.444,7.141,1.264
	c2.239-0.82,4.646-1.264,7.14-1.264H390.87c11.772,0,21.35,9.843,21.35,21.942v9.794c0,12.1-9.577,21.942-21.35,21.942h-5.186
	c-0.41,0.792-0.864,1.851-1.317,3.252c-0.051,0.164-0.144,0.433-0.239,0.7c0,0-5.544,15.09-10.865,29.548l-8.124,22.061
	c-3.689,10.011-7.666,20.794-11.691,31.694c-14.533,39.36-24.774,66.909-30.436,81.88c-0.048,0.126-0.3,0.748-0.3,0.748
	c-0.047,0.112-0.093,0.222-0.141,0.331c-8.101,18.371-19.456,22.227-27.555,22.227c-8.35,0-19.935-4.024-27.722-23.19
	c-2.518-6.15-6.22-15.508-11.066-27.965c-4.761,11.356-9.261,21.893-12.446,28.928c-0.044,0.098-0.132,0.287-0.219,0.467
	C236.489,371.794,227.075,379.207,215.573,379.207z M193.257,186.474c8.068,21.801,20.095,52.756,30.076,78.183l4.485-10.637
	c-5.857-14.204-21.512-51.259-28.526-67.546H193.257z M299.752,262.201c9.546-27.065,20.092-56.976,26.695-75.727h-8.865
	c-6.196,13.291-18.606,39.942-26.003,55.832L299.752,262.201z"/>
<path style="fill:#2D527C;" d="M315.393,146.937c0.004,0,0.008,0,0.013,0h75.465c3.963,0,7.206,3.509,7.206,7.799v9.794
	c0,4.29-3.243,7.799-7.206,7.799h-10.616c-1.184,0.539-2.194,1.185-2.997,1.952c-2.693,2.601-4.779,6.237-6.349,11.091
	c-0.031,0.096-0.064,0.191-0.099,0.286c-0.139,0.378-4.455,12.13-10.823,29.429c-2.445,6.643-5.192,14.105-8.121,22.056
	c-3.687,10.008-7.663,20.788-11.687,31.686c-11.693,31.665-23.79,64.306-30.396,81.776c-0.052,0.127-0.102,0.248-0.154,0.376
	c-1.501,3.403-6.075,13.789-14.613,13.789h-0.001c-8.78,0-13.173-10.816-14.616-14.37c-4.368-10.669-12.332-31.071-23.706-60.738
	c-8.657,21.118-19.688,47.708-25.794,61.19c-0.024,0.057-0.052,0.113-0.079,0.168c-2.912,6.028-7.66,14.043-15.244,14.043
	c-8.84,0-12.883-10.76-14.213-14.295c-0.016-0.041-0.031-0.082-0.045-0.124L132.475,172.33H121.13c-3.963,0-7.206-3.509-7.206-7.799
	v-9.794c0-4.29,3.243-7.799,7.206-7.799h81.076h19.839h30.419c3.652,0,6.686,2.983,7.14,6.807c0.455-3.824,3.488-6.807,7.14-6.807
	h48.65 M262.4,208.446c0,0,14.642-35.16,14.912-36.116h-10.568c-3.652,0-6.686-2.983-7.14-6.807
	c-0.454,3.824-3.488,6.807-7.14,6.807h-4.853C248.498,174.738,262.4,208.446,262.4,208.446 M222.897,302.097l20.224-47.963
	c-2.37-6.222-33.403-79.827-34.628-81.804h-6.287h-28.973c0.195,0.692,0.444,1.501,0.789,2.475
	C183.453,202.162,211.286,272.797,222.897,302.097 M300.756,301.866c0,0,45.688-129.495,45.647-129.536h-37.826
	c-0.137,0.233-32.436,69.622-32.436,69.622L300.756,301.866 M315.393,118.65h-48.65c-2.441,0-4.829,0.253-7.14,0.735
	c-2.311-0.482-4.7-0.735-7.14-0.735h-30.419h-19.839H121.13c-19.571,0-35.493,16.189-35.493,36.086v9.794
	c0,16.936,11.536,31.185,27.037,35.052l62.151,160.99c0.024,0.066,0.05,0.133,0.075,0.198c0.99,2.634,3.346,8.899,7.892,15.137
	c8.199,11.248,19.841,17.445,32.779,17.445c11.762,0,28.18-5.039,40.124-28.826c11.441,24.724,29.372,28.532,39.314,28.533
	c10.08,0,28.738-3.983,40.499-30.659c0.102-0.232,0.204-0.47,0.3-0.704l0.044-0.107l0.103-0.253
	c0.098-0.239,0.192-0.479,0.284-0.721c5.666-14.984,15.92-42.567,30.474-81.984c4.025-10.903,8.004-21.691,11.694-31.704
	c2.931-7.954,5.68-15.419,8.126-22.067c3.989-10.838,7.174-19.501,9.031-24.555c17.36-2.342,30.798-17.491,30.798-35.772v-9.794
	c0-19.899-15.922-36.086-35.493-36.086h-75.287C315.519,118.65,315.456,118.65,315.393,118.65L315.393,118.65z"/>
</svg>